<?xml version="1.0" encoding="UTF-8"?>
<svg id="a" data-name="Livello 1" xmlns="http://www.w3.org/2000/svg" width="602.944mm" height="131.213mm" viewBox="0 0 1709.134 371.942">
  <g>
    <path d="m149.017,108.045c-8.693-1.818-31.753-5.157-51.435,5.029-.419.215-.698.641-.734,1.123-.037.482.168.951.544,1.241l12.051,9.117c.32.239.725.323,1.109.231,20.433-5.004,38.151-3.674,51.268,3.815,6.295,10.69,12.952,24.345,20.301,41.724.235.549.784.883,1.363.828.131-.014.26-.046.382-.095.757-.323,1.544-.562,2.35-.714.732-.136,1.217-.859,1.083-1.615-.003-.018-.007-.035-.01-.053-4.156-19.531-10.673-38.451-19.396-56.315,1.243-7.814,3.444-15.431,6.55-22.668,5.968-14.013,15.558-27.262,27.725-38.33.258-.231.421-.554.456-.904l1.527-16.034c.083-.76-.447-1.446-1.183-1.534-.334-.04-.67.051-.941.255-12.765,9.142-23.359,19.945-31.48,32.154-5.722,8.538-10.162,17.92-13.172,27.829-6.254-9.875-28.683-42.631-68.071-73.353-.47-.361-1.111-.371-1.59-.025l-13.647,9.921c-.371.268-.585.712-.571,1.18.022.466.267.892.653,1.135,36.38,23.787,66.854,64.75,74.866,76.058Z" fill="#53bde2"/>
    <path d="m196.014,66.104c-.116.183-.189.391-.212.609l-1.575,15.31c-.038.398.092.793.355,1.086,14.446,15.789,22.226,32.283,22.508,47.748-5.824,11.001-13.943,23.732-24.796,38.938-.433.607-.319,1.461.257,1.927.66.511,1.264,1.096,1.799,1.743.241.276.578.444.937.467.072-.003.144-.01.215-.022.287-.029.557-.153.77-.353,14.293-13.448,26.895-28.694,37.512-45.381,7.176-2.794,14.671-4.625,22.303-5.45,14.736-1.63,30.647.342,46.064,5.708.323.112.675.093.984-.054l14.216-6.617c.676-.318.973-1.143.663-1.842-.131-.295-.357-.533-.64-.674-14.08-6.881-28.47-10.953-42.766-12.128-10.045-.853-20.154-.132-29.983,2.139,5.138-10.556,21.387-47.045,27.369-97.41.07-.6-.24-1.179-.769-1.438l-15.191-7.235c-.675-.317-1.47-.011-1.776.685-.067.152-.107.315-.117.482-1.687,44.416-20.755,92.058-26.215,104.858-2.855-8.674-11.634-30.959-30.049-43.492-.622-.422-1.457-.244-1.865.397Z" fill="#53bde2"/>
    <path d="m370.12,152.63c-.046-.453-.307-.853-.696-1.069-.395-.221-.869-.228-1.268-.018-38.089,20.626-87.625,27.304-101.097,28.796,5.859-6.864,20.139-25.815,21.402-48.523.043-.763-.521-1.42-1.261-1.466-.216-.013-.432.027-.63.119l-13.655,6.24c-.359.166-.631.484-.747.872-5.972,20.775-15.91,35.944-28.74,43.909-12.205.264-26.964-.651-45.112-2.779-.729-.084-1.387.449-1.482,1.199-.102.839-.292,1.663-.567,2.459-.123.356-.101.749.062,1.088.161.338.449.592.797.705,18.463,6.072,37.586,9.734,56.921,10.899,5.933,5.03,11.224,10.818,15.743,17.224,8.765,12.343,15.111,27.557,18.338,44.021.068.342.258.646.533.85l12.697,9.439c.266.196.591.287.916.256.184-.024.363-.081.527-.171.451-.27.712-.782.672-1.319-1.283-15.976-5.082-30.878-11.289-44.315-4.302-9.407-9.963-18.087-16.789-25.743,11.397-.637,49.895-4.201,95.451-24.058.537-.237.865-.805.81-1.406l-1.532-17.207Z" fill="#53bde2"/>
    <path d="m179.266,293.486c.423-.208.713-.624.768-1.104l1.575-15.31c.034-.399-.099-.794-.366-1.085-14.446-15.789-22.216-32.295-22.498-47.749,5.838-11.025,13.944-23.772,24.782-38.97.428-.611.307-1.464-.273-1.925-.644-.52-1.236-1.105-1.767-1.747-.24-.277-.577-.445-.937-.467-.363-.024-.719.105-.987.358-14.299,13.439-26.898,28.686-37.501,45.38-7.178,2.786-14.674,4.612-22.305,5.434-14.686,1.642-30.629-.327-46.062-5.691-.323-.111-.673-.096-.985.043l-14.226,6.624c-.675.313-.976,1.133-.671,1.83.132.301.363.544.653.685,14.052,6.873,28.448,10.95,42.765,12.128,10.033.862,20.132.155,29.954-2.097-5.145,10.484-21.313,46.628-27.347,97.414-.074.6.237,1.182.769,1.438l15.183,7.269c.218.101.458.14.696.115.203-.021.398-.087.574-.192.383-.242.622-.667.635-1.13,1.686-44.427,20.742-92.08,26.197-104.868,2.847,8.703,11.644,31.003,30.063,43.519.391.265.886.302,1.309.098Z" fill="#53bde2"/>
    <path d="m87.389,227.306c-.037.764.532,1.415,1.272,1.456.061.003.122.002.183-.003.142-.017.281-.055.413-.115l13.653-6.195c.362-.161.636-.481.747-.872,5.977-20.775,15.91-35.944,28.74-43.909,12.205-.264,26.964.651,45.113,2.779.728.094,1.391-.437,1.483-1.188.105-.838.295-1.662.567-2.459.251-.713-.106-1.501-.797-1.761-.02-.007-.04-.014-.06-.021-18.449-6.099-37.563-9.775-56.892-10.941-5.939-5.028-11.235-10.816-15.759-17.222-8.771-12.348-15.112-27.573-18.328-44.028-.07-.341-.26-.644-.533-.85l-12.706-9.427c-.427-.316-.993-.347-1.448-.079-.457.264-.72.78-.672,1.319,1.27,15.73,5.174,31.038,11.285,44.271,4.309,9.408,9.97,18.093,16.79,25.76-11.386.636-49.944,4.206-95.453,24.036-.536.238-.863.805-.81,1.406l1.522,17.208c.076.77.742,1.332,1.489,1.256.168-.017.332-.067.483-.147,38.1-20.627,87.637-27.3,101.108-28.797-5.854,6.869-20.149,25.822-21.391,48.522Z" fill="#53bde2"/>
    <path d="m270.725,299.487c-20.845-17.598-38.904-41.797-43.683-48.55,8.698,1.812,31.779,5.143,51.456-5.037.416-.221.693-.647.733-1.129.039-.481-.167-.949-.543-1.236l-12.057-9.116c-.32-.24-.725-.326-1.11-.236-20.426,5.014-38.145,3.679-51.268-3.815-6.296-10.701-12.952-24.345-20.339-41.721-.289-.673-1.035-.999-1.703-.743-.763.321-1.555.563-2.365.721-.356.072-.67.287-.872.598-.199.311-.268.692-.191,1.058,4.153,19.533,10.668,38.455,19.391,56.322-1.242,7.81-3.441,15.423-6.546,22.656-5.958,14-15.554,27.256-27.726,38.318-.258.231-.421.554-.456.905l-1.525,16.056c-.072.764.469,1.445,1.21,1.522.316.033.632-.051.893-.236,12.749-9.14,23.343-19.937,31.479-32.159,5.725-8.54,10.164-17.928,13.165-27.846,4.118,6.475,14.682,23.602,33.187,42.958,18.505,19.357,45.615,37.739,45.615,37.739.116.07.266.033.336-.082l12.632-20.246c.07-.116.033-.266-.082-.336,0,0-19.697-9.536-39.633-26.366Z" fill="#53bde2"/>
  </g>
  <g>
    <path d="m397.621,268.592c11.18,0,17.855-6.467,17.855-17.298,0-17.708-19.416-30.561-46.166-30.561-32.51,0-54.352,18.385-54.352,45.75,0,28.725,23.306,36.19,42.033,42.188,12.813,4.104,23.88,7.648,23.88,16.856,0,13.725-18.836,14.792-24.61,14.792-11.198,0-23.092-2.707-33.488-7.622l-1.178-.558v9.86c0,14.255,13.844,22.432,37.983,22.432,25.622,0,51.476-13.022,51.476-42.113,0-24.808-20.121-31.487-37.873-37.378-15.045-4.994-28.039-9.306-28.039-22.949,0-10.766,9.179-18,22.841-18s22.399,7.486,22.399,19.07v5.532h7.24Z"/>
    <path d="m534.787,316.615l-70.839-95.335-.272-.366-.455.035c-9.089.712-18.558,3.39-25.33,7.162l-.423.236v133.944h27.529v-94.355l70.885,96.741.457-.034c9.106-.695,18.416-3.304,25.544-7.157l.433-.234v-134.379h-27.529v93.743Z"/>
    <path d="m654.557,220.733c-43.075,0-69.833,25.973-69.833,67.784,0,43.987,29.37,75.914,69.833,75.914,40.72,0,70.276-31.927,70.276-75.914,0-41.811-26.928-67.784-70.276-67.784Zm0,119.586c-23.867,0-40.536-21.302-40.536-51.802,0-27.747,15.154-44.313,40.536-44.313,26.043,0,40.978,16.151,40.978,44.313,0,30.985-16.468,51.802-40.978,51.802Z"/>
    <path d="m899.739,223.53c-6.086,29.437-16.509,66.739-27.373,98.05l-25.15-100.446-.672.028c-9.164.377-19.135,1.398-29.943,6.276l-.686.309.245.711c1.237,3.588.882,10.372-.907,17.297-4.672,19.58-13.661,47.04-25.377,77.539l-26.77-99.81-.164-.611h-30.875v3.518l42.726,136.82.19.61.639-.032c9.708-.495,17.115-1.787,24.768-4.32l.346-.114.148-.333c11.78-26.434,23.003-57.401,31.73-87.522l24.619,92.323.667-.034c9.811-.501,17.451-1.833,24.775-4.322l.334-.114.149-.32c17.842-38.428,35.663-91.48,45.399-135.155l.224-1.005h-28.906l-.136.658Z"/>
    <path d="m1057.518,239.117c-12.328-10.628-29.789-16.245-50.498-16.245h-56.402c-10.114,0-10.114,8.271-10.114,23.287v.825h11.943v77.258c0,26.67,11.823,38.049,39.532,38.049h13.271c19.491,0,37.575-7.138,50.922-20.101,13.907-13.509,21.566-32.57,21.566-53.674,0-20.914-6.992-37.996-20.219-49.4Zm-54.479,99.062h-6.636c-11.359,0-16.206-4.936-16.206-16.504v-74.69h21.956c40.081,0,46.065,26.021,46.065,41.532,0,36.655-24.338,49.662-45.18,49.662Z"/>
    <path d="m1164.522,221.161c-11.145.24-22.031,2.779-30.657,7.149l-.663.335.264.694c1.438,3.776.408,9.092-3.053,15.789-17.548,32.673-34.546,72.811-49.157,116.074l-.368,1.09h31.405l.175-.591c2.906-9.837,5.663-18.538,8.423-26.578h59.217l9.953,27.169h31.041v-3.554l-56.013-137.589-.567.012Zm-35.72,90.705c5.97-15.587,13.896-35.469,23.232-54.212l19.733,54.212h-42.964Z"/>
    <path d="m1308.925,223.408c-9.289,24.76-20.092,46.998-33.004,67.93l-35.163-68.019-.23-.446h-30.745v3.603l50.65,92.844v42.972h27.972v-44.419c21.856-31.061,37.588-59.144,52.573-93.848l.498-1.152h-32.349l-.201.535Z"/>
    <path d="m1429.443,268.592c11.18,0,17.855-6.467,17.855-17.298,0-17.708-19.416-30.561-46.166-30.561-32.51,0-54.352,18.385-54.352,45.75,0,28.725,23.306,36.19,42.033,42.188,12.813,4.104,23.88,7.648,23.88,16.856,0,13.725-18.836,14.792-24.61,14.792-11.198,0-23.092-2.707-33.488-7.622l-1.178-.558v9.86c0,14.255,13.844,22.432,37.983,22.432,25.622,0,51.476-13.022,51.476-42.113,0-24.808-20.121-31.487-37.873-37.378-15.045-4.994-28.039-9.306-28.039-22.949,0-10.766,9.179-18,22.841-18s22.399,7.486,22.399,19.07v5.532h7.24Z"/>
  </g>
  <g>
    <path d="m1571.157,265.606c0-27.21-21.287-44.791-54.231-44.791-30.56,0-52.741,16.008-52.741,38.064,0,10.882,8.639,14.759,16.723,14.759h9.272v-5.869c0-10.95,7.503-22,24.263-22,15.806,0,24.51,8.41,24.51,23.681,0,15.788-12.328,40.269-71.057,67.241l-.264.121-.129.261c-3.15,6.324-4.61,15.7-3.81,24.468l.069.75h106.404v-25.436h-51.534c34.86-21.508,52.527-45.469,52.527-71.251Z" fill="#53bde2"/>
    <path d="m1684.489,317.62v-31.779h-.825c-22.961,0-29.132,0-29.132,14.758v17.02h-34.163c22.916-30.346,41.03-57.722,56.939-86.04l.105-.188v-3.975h-33.678l-.231.444c-15.316,29.387-35.216,60.538-57.552,90.087l-.109.192c-2.637,6.635-3.848,15.996-3.086,23.853l.072.746h71.702v26.155h29.957v-26.155h20.472v-25.119h-20.472Z" fill="#53bde2"/>
  </g>
</svg>